# xmcd CD database file
#
# Track frame offsets:
#	150
#	21462
#	36093
#	54331
#
# Disc length: 1006 seconds
#
# Revision: 1
# Processed by: cddbd v1.5.2PL0 Copyright (c) Steve Scherf et al.
# Submitted via: CDex 1.70beta3
#
DISCID=2c03ec04
DTITLE=栗コーダーカルテット&UA - PoPo Loouise
DYEAR=2008
DGENRE=Easy Listening
TTITLE0=PoPo Loouise
TTITLE1=グリーンビーチ
TTITLE2=純な賛美 
TTITLE3=PoPo Loouise (オリジナルカラオケ) 	
EXTD=YEAR: 2008
EXTT0=
EXTT1=
EXTT2=
EXTT3=
PLAYORDER=
